<svg width="50" height="51" viewBox="0 0 50 51" fill="none" xmlns="http://www.w3.org/2000/svg">
<path fill-rule="evenodd" clip-rule="evenodd" d="M11.0871 39.6141C11.0809 39.6153 11.076 39.6161 11.0723 39.6167L11.0499 39.6051C10.942 39.5493 10.9101 39.5056 10.9027 39.4941C10.8979 39.4867 10.8824 39.4625 10.8824 39.3889V20.5C10.8824 15.4035 14.8123 11.3824 19.6686 11.3824H30.4116C35.2679 11.3824 39.1979 15.4035 39.1979 20.5V24.9444C39.1979 30.041 35.2679 34.0621 30.4116 34.0621H25.3624C20.2391 34.0621 15.2352 36.0035 11.3303 39.5361C11.2864 39.5545 11.2377 39.5727 11.1888 39.5878C11.1469 39.6008 11.1124 39.6093 11.0871 39.6141ZM11.0743 40.5C11.2892 40.5 11.6114 40.3889 11.8263 40.2778C15.5863 36.8333 20.4206 34.9444 25.3624 34.9444H30.4116C35.783 34.9444 40.0802 30.5 40.0802 24.9444V20.5C40.0802 14.9444 35.783 10.5 30.4116 10.5H19.6686C14.2972 10.5 10 14.9444 10 20.5V39.3889C10 39.8333 10.2149 40.1667 10.6446 40.3889C10.752 40.5 10.9669 40.5 11.0743 40.5ZM21.0294 23.7353C21.7604 23.7353 22.3529 23.1427 22.3529 22.4118C22.3529 21.6808 21.7604 21.0882 21.0294 21.0882C20.2984 21.0882 19.7059 21.6808 19.7059 22.4118C19.7059 23.1427 20.2984 23.7353 21.0294 23.7353ZM26.7647 22.4118C26.7647 23.1427 26.1721 23.7353 25.4412 23.7353C24.7102 23.7353 24.1176 23.1427 24.1176 22.4118C24.1176 21.6808 24.7102 21.0882 25.4412 21.0882C26.1721 21.0882 26.7647 21.6808 26.7647 22.4118ZM29.8529 23.7353C30.5839 23.7353 31.1765 23.1427 31.1765 22.4118C31.1765 21.6808 30.5839 21.0882 29.8529 21.0882C29.122 21.0882 28.5294 21.6808 28.5294 22.4118C28.5294 23.1427 29.122 23.7353 29.8529 23.7353Z" fill="black"/>
</svg>
