<svg width="31" height="31" viewBox="0 0 31 31" fill="none" xmlns="http://www.w3.org/2000/svg">
<path fill-rule="evenodd" clip-rule="evenodd" d="M15.9111 4.44824C14.0472 4.44824 12.5361 5.95928 12.5361 7.82324C12.5361 9.6872 14.0472 11.1982 15.9111 11.1982C17.7751 11.1982 19.2861 9.6872 19.2861 7.82324C19.2861 5.95928 17.7751 4.44824 15.9111 4.44824ZM10.5361 7.82324C10.5361 4.85471 12.9426 2.44824 15.9111 2.44824C18.8797 2.44824 21.2861 4.85471 21.2861 7.82324C21.2861 10.7918 18.8797 13.1982 15.9111 13.1982C12.9426 13.1982 10.5361 10.7918 10.5361 7.82324Z" fill="#868686"/>
<path fill-rule="evenodd" clip-rule="evenodd" d="M14.6611 17.5732C8.88629 17.5732 4.41113 21.7099 4.41113 26.5732C4.41113 27.1255 3.96342 27.5732 3.41113 27.5732C2.85885 27.5732 2.41113 27.1255 2.41113 26.5732C2.41113 20.3903 8.00973 15.5732 14.6611 15.5732C15.2134 15.5732 15.6611 16.021 15.6611 16.5732C15.6611 17.1255 15.2134 17.5732 14.6611 17.5732ZM23.329 17.7411C23.7196 17.3506 24.3527 17.3506 24.7432 17.7411L27.2432 20.2411C27.6338 20.6317 27.6338 21.2648 27.2432 21.6553L20.9932 27.9053C20.8057 28.0929 20.5513 28.1982 20.2861 28.1982H17.7861C17.2338 28.1982 16.7861 27.7505 16.7861 27.1982V24.6982C16.7861 24.433 16.8915 24.1787 17.079 23.9911L23.329 17.7411ZM18.7861 25.1125V26.1982H19.8719L25.1219 20.9482L24.0361 19.8625L18.7861 25.1125Z" fill="#868686"/>
</svg>
