<svg width="26" height="26" viewBox="0 0 26 26" fill="none" xmlns="http://www.w3.org/2000/svg">
<path d="M12.9111 0.760742C9.67881 0.760742 6.57887 2.04478 4.29327 4.33038C2.00767 6.61598 0.723633 9.71592 0.723633 12.9482C0.723633 16.1806 2.00767 19.2805 4.29327 21.5661C6.57887 23.8517 9.67881 25.1357 12.9111 25.1357C15.4318 25.1357 18.0791 24.3764 19.9928 23.1049C20.0953 23.0367 20.1835 22.949 20.2522 22.8468C20.3208 22.7445 20.3687 22.6298 20.393 22.509C20.4173 22.3883 20.4176 22.264 20.3939 22.1431C20.3702 22.0223 20.3229 21.9073 20.2547 21.8047C20.1865 21.7021 20.0988 21.614 19.9966 21.5453C19.8943 21.4766 19.7796 21.4288 19.6588 21.4045C19.5381 21.3801 19.4138 21.3798 19.2929 21.4036C19.1721 21.4273 19.0571 21.4746 18.9545 21.5428C17.3643 22.6021 15.0451 23.2607 12.9111 23.2607C10.8715 23.2607 8.8777 22.6559 7.18181 21.5228C5.48593 20.3896 4.16415 18.779 3.38363 16.8947C2.6031 15.0103 2.39887 12.9368 2.79678 10.9364C3.19469 8.93594 4.17687 7.09843 5.61909 5.6562C7.06132 4.21397 8.89884 3.2318 10.8993 2.83389C12.8997 2.43598 14.9732 2.64021 16.8576 3.42073C18.7419 4.20126 20.3525 5.52304 21.4857 7.21892C22.6188 8.91481 23.2236 10.9086 23.2236 12.9482C23.2236 16.0479 21.9486 16.6982 20.8799 16.6982C19.8111 16.6982 18.5361 16.0479 18.5361 12.9482V8.26074C18.5361 8.0121 18.4374 7.77364 18.2615 7.59783C18.0857 7.42201 17.8473 7.32324 17.5986 7.32324C17.35 7.32324 17.1115 7.42201 16.9357 7.59783C16.7599 7.77364 16.6611 8.0121 16.6611 8.26074V8.75996C15.8198 8.00566 14.7708 7.52222 13.6508 7.37262C12.5308 7.22303 11.3917 7.41421 10.382 7.92127C9.37217 8.42832 8.53849 9.22774 7.98955 10.2154C7.4406 11.203 7.20182 12.3331 7.30432 13.4584C7.40683 14.5837 7.84586 15.652 8.56422 16.5242C9.28258 17.3964 10.247 18.032 11.3318 18.3483C12.4165 18.6646 13.5714 18.6468 14.646 18.2973C15.7205 17.9478 16.6649 17.2828 17.3561 16.3889C18.0592 17.7951 19.2721 18.5732 20.8799 18.5732C23.5213 18.5732 25.0986 16.4709 25.0986 12.9482C25.0952 9.71696 23.8101 6.61901 21.5252 4.33415C19.2404 2.04929 16.1424 0.764154 12.9111 0.760742ZM12.9111 16.6982C12.1695 16.6982 11.4444 16.4783 10.8277 16.0663C10.2111 15.6542 9.73041 15.0685 9.44658 14.3833C9.16276 13.6981 9.08849 12.9441 9.23319 12.2167C9.37788 11.4892 9.73503 10.821 10.2595 10.2966C10.7839 9.77214 11.4521 9.41499 12.1795 9.2703C12.907 9.1256 13.661 9.19987 14.3462 9.48369C15.0314 9.76752 15.6171 10.2482 16.0291 10.8649C16.4412 11.4815 16.6611 12.2066 16.6611 12.9482C16.6611 13.9428 16.266 14.8966 15.5628 15.5999C14.8595 16.3032 13.9057 16.6982 12.9111 16.6982Z" fill="#868686"/>
</svg>
